<svg viewBox="0 0 1024 1024" xmlns="http://www.w3.org/2000/svg">
  <path d="M58.459429 614.4h35.565714v-92.708571c0-18.285714 11.995429-31.579429 29.147428-31.579429 16.566857 0 26.861714 10.422857 26.861715 27.282286V614.4h34.56v-93.568c0-18.157714 11.721143-30.72 28.854857-30.72 17.444571 0 27.154286 10.569143 27.154286 29.147429V614.4h35.565714v-103.862857c0-30.281143-19.565714-50.432-49.426286-50.432-21.851429 0-39.862857 11.721143-47.140571 30.445714h-0.859429c-5.577143-19.437714-20.845714-30.445714-42.294857-30.445714-20.571429 0-36.571429 11.574857-43.136 29.147428h-0.713143V462.994286H58.459429V614.4z m295.570285-24.429714c-15.414857 0-25.709714-7.862857-25.709714-20.297143 0-11.995429 9.874286-19.693714 27.008-20.845714l34.998857-2.139429v11.574857c0 18.285714-16.146286 31.707429-36.297143 31.707429z m-10.715428 26.861714c19.437714 0 38.436571-10.148571 47.158857-26.569143h0.713143v24.137143h34.285714v-104.283429c0-30.427429-24.429714-50.285714-62.006857-50.285714-38.582857 0-62.72 20.297143-64.292572 48.566857h33.005715c2.285714-12.562286 13.001143-20.717714 29.860571-20.717714 17.554286 0 28.288 9.142857 28.288 24.996571v10.861715l-40.009143 2.285714c-36.845714 2.285714-57.563429 18.432-57.563428 45.293714 0 27.282286 21.284571 45.714286 50.56 45.714286z m238.299428-99.858286c-2.432-31.853714-27.136-57.142857-67.145143-57.142857-43.995429 0-72.576 30.427429-72.576 78.848 0 49.152 28.580571 78.72 72.868572 78.72 37.997714 0 64.146286-22.290286 66.998857-56.137143h-33.572571c-3.291429 17.133714-14.994286 27.428571-33.005715 27.428572-22.564571 0-37.138286-18.285714-37.138285-50.011429 0-31.140571 14.427429-49.993143 36.864-49.993143 18.998857 0 30.281143 12.141714 33.133714 28.269715h33.572571z m109.860572-112.146285c-60.141714 0-97.846857 40.996571-97.846857 106.569142 0 65.572571 37.705143 106.422857 97.846857 106.422858 59.995429 0 97.718857-40.850286 97.718857-106.422858 0-65.572571-37.705143-106.569143-97.718857-106.569142z m0 31.433142c36.717714 0 60.16 29.147429 60.16 75.154286 0 45.842286-23.442286 74.971429-60.16 74.971429-36.845714 0-60.141714-29.129143-60.141715-74.971429 0-46.006857 23.296-75.154286 60.16-75.154286z m112.731428 120.137143c1.554286 37.997714 32.713143 61.44 80.128 61.44 49.865143 0 81.298286-24.576 81.298286-63.725714 0-30.72-17.718857-48-59.574857-57.563429l-23.716572-5.430857c-25.289143-5.997714-35.712-14.006857-35.712-27.721143 0-17.133714 15.725714-28.562286 39.003429-28.562285 23.570286 0 39.716571 11.574857 41.417143 30.848h35.145143c-0.859429-36.278857-30.848-60.854857-76.288-60.854857-44.854857 0-76.708571 24.722286-76.708572 61.293714 0 29.44 17.993143 47.725714 55.990857 56.429714l26.715429 6.272c26.002286 6.144 36.571429 14.72 36.571429 29.586286 0 17.133714-17.28 29.421714-42.130286 29.421714-25.142857 0-44.141714-12.434286-46.445714-31.433143H804.205714z" fill="#9CA3AF"/>
</svg>
