<svg xmlns="http://www.w3.org/2000/svg" viewBox="0 0 225 225" width="256" height="256">
  <defs>
    <mask id="cutout">
      <rect width="225" height="225" rx="36" fill="white"/>
      <path d="M0 0 C8.58966952 -1.0542295 8.58966952 -1.0542295 11.61474609 1.20703125 C12.99831806 3.06703985 14.09700055 4.95399123 15.1875 7 C16.09425476 8.54343745 17.00185941 10.0863758 17.91015625 11.62890625 C18.39371582 12.47855957 18.87727539 13.32821289 19.37548828 14.20361328 C22.47545604 19.53980665 25.82881277 24.72117713 29.125 29.9375 C30.42165747 32.00762159 31.71610172 34.07913193 33.0078125 36.15234375 C33.56098145 37.03913818 34.11415039 37.92593262 34.68408203 38.83959961 C37.01430212 42.66522439 37.01430212 42.66522439 36.89453125 45.46875 C36.79995273 48.96365154 36.95584143 51.64791952 38 55 C40.76052509 57.16256369 40.76052509 57.16256369 44.0625 59.0625 C46.69761655 60.72706404 48.46159873 62.26269333 50 65 C51.6259789 73.85349028 50.67721891 83.08328437 50 92 C45.71 92 41.42 92 37 92 C37 108.17 37 124.34 37 141 C32.71 141 28.42 141 24 141 C23.97421875 139.81664062 23.9484375 138.63328125 23.921875 137.4140625 C23.52124601 124.75204261 21.96698914 114.60606186 13 105 C3.29987753 95.89566241 -7.30376247 92.63895189 -20.375 92.70703125 C-25.46177781 93.11813937 -29.49812048 94.69004684 -34 97 C-34.70898438 97.29132813 -35.41796875 97.58265625 -36.1484375 97.8828125 C-38.48057 99.28996418 -38.85651424 100.55529682 -40 103 C-40.34450195 103.60384521 -40.68900391 104.20769043 -41.04394531 104.82983398 C-44.7862479 111.99021227 -44.66391784 119.12337688 -44.75 127.0625 C-44.77821611 128.41865693 -44.80815124 129.77477923 -44.83984375 131.13085938 C-44.91007998 134.42025629 -44.95735748 137.71012967 -45 141 C-50.61 141 -56.22 141 -62 141 C-62 123.18 -62 105.36 -62 87 C-65.63 87 -69.26 87 -73 87 C-76.15698242 85.24145508 -76.15698242 85.24145508 -78 82 C-78.65036903 78.0306215 -78.58144217 74.14969113 -78.48828125 70.13671875 C-78.48120651 68.98959915 -78.47413177 67.84247955 -78.46684265 66.66059875 C-78.43888813 63.00223162 -78.37614286 59.34540337 -78.3125 55.6875 C-78.28741872 53.20510025 -78.26460526 50.72267648 -78.24414062 48.24023438 C-78.18905716 42.15956468 -78.10277287 36.08004311 -78 30 C-82.29 30 -86.58 30 -91 30 C-91 24.39 -91 18.78 -91 13 C-86.71 13 -82.42 13 -78 13 C-78 11.35 -78 9.7 -78 8 C-72.39 8 -66.78 8 -61 8 C-60.67 24.83 -60.34 41.66 -60 59 C-50.19482018 35.71909745 -50.19482018 35.71909745 -40.62915039 12.33935547 C-40.12436157 11.0924292 -40.12436157 11.0924292 -39.609375 9.8203125 C-39.32030273 9.10117676 -39.03123047 8.38204102 -38.73339844 7.64111328 C-38 6 -38 6 -37 5 C-35.48071962 4.92820036 -33.95832518 4.91607993 -32.4375 4.9375 C-31.61121094 4.94652344 -30.78492188 4.95554687 -29.93359375 4.96484375 C-29.29550781 4.97644531 -28.65742187 4.98804688 -28 5 C-26.14361774 8.80619129 -24.2923437 12.61481041 -22.44580078 16.42578125 C-21.81667289 17.72236283 -21.18614459 19.01826587 -20.55419922 20.31347656 C-19.64703828 22.17337011 -18.74491197 24.03563141 -17.84375 25.8984375 C-17.02680664 27.57945557 -17.02680664 27.57945557 -16.19335938 29.29443359 C-15 32 -15 32 -15 34 C-14.34 34 -13.68 34 -13 34 C-12.89115479 33.31591064 -12.78230957 32.63182129 -12.67016602 31.92700195 C-11.88115946 28.48095473 -10.6423596 25.42963821 -9.27734375 22.16796875 C-9.01240616 21.53135818 -8.74746857 20.89474762 -8.47450256 20.23884583 C-7.63312896 18.21990579 -6.78542409 16.20369644 -5.9375 14.1875 C-5.36351111 12.81332689 -4.78993893 11.43897965 -4.21679688 10.06445312 C-2.81601516 6.70760648 -1.40954545 3.35317771 0 0 Z" transform="translate(133,42)" fill="black"/>
    </mask>
  </defs>
  <rect width="225" height="225" rx="36" fill="#9CA3AF" mask="url(#cutout)"/>
</svg>
