<?xml version="1.0" encoding="UTF-8"?>
<svg xmlns="http://www.w3.org/2000/svg" viewBox="0 0 2152 2152" width="256" height="256" fill="#9CA3AF">
<path d="M0 0 C7.90461282 6.39897229 10.46897592 15.28368991 11.625 25.125 C11.7769095 28.21486476 11.79118482 31.29741063 11.78125 34.390625 C11.77951782 35.29911194 11.77778564 36.20759888 11.77600098 37.14361572 C11.69425478 47.86343222 10.99270453 58.54513421 10.34161377 69.24221802 C9.04081566 91.05761757 8.29839383 112.83328814 8.25 134.6875 C8.24250732 135.84318481 8.23501465 136.99886963 8.22729492 138.1895752 C8.11663459 158.81592333 9.45467057 179.40202099 14.375 199.5 C14.63031494 200.56814941 14.88562988 201.63629883 15.14868164 202.73681641 C18.68098082 216.99616732 23.22500799 230.93268655 31.625 243.125 C32.40423828 244.26001953 32.40423828 244.26001953 33.19921875 245.41796875 C38.30425998 252.00631494 46.37756547 256.66768633 54.625 258.125 C78.11433226 259.82145177 97.35316011 247.58185891 116.39306641 235.46777344 C150.64360985 213.73771611 192.05202258 194.19797554 233.375 193.8125 C234.3959375 193.78349609 235.416875 193.75449219 236.46875 193.72460938 C244.8942064 193.65511005 253.07195619 195.20473994 260 200.3125 C267.8195931 208.69063546 270.18341425 218.68194401 269.85546875 229.94140625 C267.93285486 256.49954722 258.48758633 281.93264319 240.125 301.328125 C233.64680426 308.57560649 227.51356267 316.52424872 226.1875 326.375 C228.2085708 343.69846401 247.87481542 363.21436709 259.359375 375.6484375 C261.1879653 377.64727586 262.95539371 379.67504678 264.71875 381.73046875 C268.9334592 386.5578989 273.41758116 391.10366023 277.94824219 395.63354492 C279.36419947 397.05168284 280.77198289 398.47796665 282.1796875 399.90429688 C288.35067193 406.08817333 294.80219561 411.6777065 301.625 417.125 C302.81972521 418.13102846 304.00949913 419.14300561 305.19140625 420.1640625 C317.62833714 431.72558627 317.62833714 431.72558627 333.01953125 437.484375 C337.34747234 437.05298759 339.65753851 435.7012705 343.3125 433.375 C353.44658253 427.17672183 365.78987514 422.09607564 377.859375 424.5859375 C388.09412607 427.58577833 394.39819022 434.01190343 399.625 443.125 C402.98480239 449.93323266 405.61623129 456.84361807 407.75 464.125 C409.48694547 470.00059332 411.08042423 473.94393505 415.8125 478 C420.97734972 480.06593989 425.18172471 479.95517365 430.453125 478.1640625 C439.31846942 474.14912903 447.5474927 467.67932658 453.33984375 459.7890625 C453.97599609 458.96535156 453.97599609 458.96535156 454.625 458.125 C455.285 458.125 455.945 458.125 456.625 458.125 C456.8824852 457.54187042 457.1399704 456.95874084 457.40525818 456.35794067 C458.73137983 453.93025399 460.17584371 452.33979078 462.14086914 450.39794922 C463.21692162 449.32696487 463.21692162 449.32696487 464.31471252 448.23434448 C465.08870895 447.47380768 465.86270538 446.71327087 466.66015625 445.9296875 C467.4540123 445.14103302 468.24786835 444.35237854 469.06578064 443.53982544 C471.6016574 441.02176055 474.14411792 438.51048213 476.6875 436 C479.23357229 433.48151636 481.77818721 430.96160341 484.31993103 428.43875122 C485.90196976 426.86899988 487.48667331 425.30192895 489.07423401 423.73776245 C489.78845016 423.03007721 490.50266632 422.32239197 491.23852539 421.59326172 C491.8698085 420.97023163 492.50109161 420.34720154 493.15150452 419.70529175 C494.71810479 418.17452185 494.71810479 418.17452185 495.625 416.125 C496.285 416.125 496.945 416.125 497.625 416.125 C497.625 415.465 497.625 414.805 497.625 414.125 C498.285 414.125 498.945 414.125 499.625 414.125 C499.96942139 413.29379639 499.96942139 413.29379639 500.32080078 412.44580078 C501.98982794 409.47579476 504.08596459 407.40453869 506.4921875 404.9921875 C506.9681839 404.51427765 507.4441803 404.0363678 507.93460083 403.54397583 C508.93913209 402.53808773 509.94617688 401.53470425 510.95556641 400.53369141 C512.49487445 399.0050899 514.02322697 397.46611841 515.55078125 395.92578125 C516.5306094 394.94727478 517.51105782 393.96938894 518.4921875 392.9921875 C519.38019043 392.10644043 520.26819336 391.22069336 521.18310547 390.30810547 C524.28735247 387.53284286 526.38531428 386.28669814 530.5 385.75 C534.5949919 386.24139903 536.57327165 387.35715336 539.625 390.125 C541.02649285 395.59279606 540.42819621 398.60749504 538 403.625 C537.33848131 405.03590742 536.68132757 406.4488655 536.02734375 407.86328125 C535.46055908 409.08265381 535.46055908 409.08265381 534.88232422 410.32666016 C533.16097165 414.15775592 531.57503361 418.04091532 529.98138428 421.92651367 C522.84055742 439.3300392 515.05524457 456.30757724 506.625 473.125 C505.99948242 474.37990234 505.99948242 474.37990234 505.36132812 475.66015625 C499.32322223 487.69450942 492.24498339 499.07637249 485.20654297 510.54443359 C473.83855204 529.0933166 462.96181518 549.72313529 467.75 572.125 C471.47727635 585.60186496 480.61088043 595.28652961 492.44140625 602.375 C513.96065723 614.20398704 536.13377298 619.10663358 560.2043457 623.08129883 C606.70441488 630.83070654 606.70441488 630.83070654 619.625 647.125 C623.30138329 653.41042949 623.76863409 659.68661057 621.96875 666.671875 C617.72858405 678.44199082 607.96250678 688.0679605 599.0625 696.5625 C590.29127977 705.2523168 582.56624167 716.71258335 581.3125 729.25 C581.92646118 736.86311865 584.71715614 743.30438003 590.44140625 748.43359375 C600.05905363 755.88339932 610.96625816 760.83764739 621.95458984 765.9128418 C623.0008252 766.40051025 624.04706055 766.88817871 625.125 767.390625 C626.0634375 767.82149414 627.001875 768.25236328 627.96875 768.69628906 C632.43652488 771.09936062 635.78223381 773.81852061 638.375 778.1875 C638.78234375 778.85910156 639.1896875 779.53070312 639.609375 780.22265625 C644.25839551 788.93062928 641.0143071 798.38726689 638.49169922 807.25976562 C631.9066545 830.43836121 637.04475228 852.44325815 648.19238281 873.31933594 C652.56632552 881.13309793 658.06476491 888.13066846 663.625 895.125 C664.388125 896.09050781 665.15125 897.05601562 665.9375 898.05078125 C669.12916407 902.01102619 672.39828722 905.88508387 675.7890625 909.67578125 C686.97692845 922.22612668 698.77509829 936.08520503 698.12890625 953.82421875 C695.0975353 973.6808734 673.58002698 987.60942925 658.76831055 999.0925293 C650.42937375 1005.569959 642.40278978 1012.45446464 634.51171875 1019.46875 C633.18010304 1020.63770458 631.82610084 1021.78139282 630.45703125 1022.90625 C619.71745675 1031.9267532 610.94250085 1043.34277814 609.3515625 1057.5703125 C608.62785276 1076.66511574 617.77299063 1094.2667149 625.625 1111.125 C626.29560008 1112.57160199 626.9661768 1114.01821481 627.63671875 1115.46484375 C628.61516976 1117.57100101 629.60131531 1119.67363757 630.6015625 1121.76953125 C633.28322446 1127.9414479 633.72761903 1134.93223847 632.01171875 1141.45703125 C628.43274503 1150.2073855 622.25165232 1157.79103642 615.46875 1164.265625 C604.81082051 1175.01387593 589.78672261 1191.91356319 589.3125 1207.8125 C589.42969277 1215.15302914 592.16096388 1219.79859499 597.0625 1225.125 C604.93016826 1232.54350119 614.70057972 1237.26172198 624.31689453 1241.984375 C648.83916839 1254.06119992 648.83916839 1254.06119992 658.625 1263.125 C659.4286499 1263.85928223 659.4286499 1263.85928223 660.24853516 1264.60839844 C670.89664432 1274.4315507 683.40238319 1287.00855393 684.9296875 1302.14453125 C685.3511595 1312.79289731 682.70940256 1320.29413563 675.796875 1328.3359375 C668.19944796 1334.5942497 660.13202747 1335.35990853 650.56054688 1334.52441406 C628.0114006 1331.45634991 605.6685635 1322.32955858 584.6015625 1314.19140625 C583.87179199 1313.91119629 583.14202148 1313.63098633 582.39013672 1313.34228516 C580.56255367 1312.6350765 578.74178423 1311.91032221 576.921875 1311.18359375 C571.68477036 1309.50201157 567.26008461 1308.63447462 561.875 1310.25 C556.95444343 1313.08878264 554.15297753 1316.6497472 552.625 1322.125 C551.94554909 1330.55019129 554.60689359 1336.43406701 559.77734375 1343.02734375 C565.87523126 1349.9503154 573.22576649 1355.42103683 580.61328125 1360.87890625 C607.93782004 1381.25712908 607.93782004 1381.25712908 610.05859375 1394.91796875 C610.33999415 1401.10025034 609.41454359 1406.15253259 605.625 1411.125 C601.27420034 1415.55318543 597.62901234 1419.23162731 591.25 1419.5 C574.29473472 1419.21016641 555.95817243 1405.0823992 543.37109375 1394.58105469 C529.42191849 1381.16222597 529.42191849 1381.16222597 512.9453125 1374.14453125 C510.44062286 1374.92730522 510.44062286 1374.92730522 509.34765625 1377.34765625 C506.89722247 1386.76526932 508.73042112 1394.16862261 513.42578125 1402.5390625 C516.40587824 1407.5373178 519.82837928 1412.21468449 523.2734375 1416.8984375 C528.46052898 1424.01560953 532.20246712 1431.30050865 535.59838867 1439.39794922 C538.22947062 1445.52466193 541.38067836 1451.30433473 544.625 1457.125 C568.969787 1501.07252187 568.969787 1501.07252187 564.046875 1522.66015625 C561.67946374 1528.93379608 557.34857634 1532.78161641 551.625 1536.125 C544.43487549 1539.04415137 536.32603144 1539.48512988 528.84375 1537.3203125 C507.7716997 1527.65117549 497.28612648 1504.06782159 486.61108398 1484.89398193 C484.48971932 1481.08836717 482.35285267 1477.2914735 480.21411133 1473.49560547 C479.15533712 1471.61532265 478.10015512 1469.73300987 477.04956055 1467.84814453 C471.9943939 1458.8369443 466.39783193 1450.18971851 460.625 1441.625 C457.67358078 1437.23995467 454.8145071 1432.82681327 452.0625 1428.3125 C446.2388656 1419.13959229 439.20077775 1410.65025925 428.625 1407.125 C421.20610428 1406.62202402 415.62588925 1407.71124126 409.75 1412.4375 C406.04327423 1417.12541788 405.37337231 1421.58862914 405.5 1427.45703125 C405.51699951 1428.65980713 405.53399902 1429.86258301 405.55151367 1431.10180664 C405.57576416 1432.36758545 405.60001465 1433.63336426 405.625 1434.9375 C405.97578845 1472.92388689 405.97578845 1472.92388689 396.625 1486.125 C390.08078656 1492.66921344 381.88465122 1492.45232143 373.20898438 1492.60351562 C368.36792174 1492.77157961 364.63192598 1493.13022471 360.625 1496.125 C356.87653795 1503.01208754 356.8603706 1510.48229092 356.4375 1518.1875 C356.357805 1519.53060238 356.27805166 1520.87370129 356.19824219 1522.21679688 C353.34308849 1572.36142107 361.90464973 1620.66912966 385.67041016 1665.32177734 C386.63761698 1667.14883351 387.57658893 1668.98837902 388.51171875 1670.83203125 C393.1493331 1679.87851997 398.49763562 1688.35491711 404.10693359 1696.82568359 C406.80345146 1700.90992374 409.46113507 1705.01942147 412.125 1709.125 C413.22771624 1710.821711 414.33057965 1712.51832637 415.43359375 1714.21484375 C415.96968262 1715.03968262 416.50577148 1715.86452148 417.05810547 1716.71435547 C418.064713 1718.26300656 419.07153104 1719.81152085 420.07861328 1721.35986328 C426.77139944 1731.65339184 433.3969634 1741.98709474 439.91064453 1752.39501953 C441.12013347 1754.32103852 442.33518363 1756.24357067 443.55419922 1758.16357422 C464.92497566 1791.83702839 483.53361755 1829.01544192 474.625 1870.125 C471.17141871 1881.43008251 465.64895498 1889.01921149 455.31640625 1894.80859375 C443.61518114 1900.53183448 431.78191024 1903.42278323 419.1328125 1899.16015625 C397.47216158 1890.21923336 386.0648823 1867.35867909 377.45507812 1846.82324219 C371.17696493 1831.33281127 366.88477884 1815.62288227 363.3125 1799.3125 C354.75096544 1760.2721891 341.43403456 1722.77401413 325.625 1686.125 C325.35143677 1685.48806213 325.07787354 1684.85112427 324.79602051 1684.19488525 C316.28282954 1664.39839934 306.75030856 1645.09904135 297.12891388 1625.82364655 C296.50504271 1624.57370485 295.88149843 1623.32359994 295.25829315 1622.07332611 C280.44593544 1591.72817857 280.44593544 1591.72817857 259.375 1565.625 C258.62629639 1564.88306396 257.87759277 1564.14112793 257.10620117 1563.37670898 C251.5339702 1557.90772305 245.87406343 1552.81854117 239.625 1548.125 C239.11469238 1547.72764648 238.60438477 1547.33029297 238.07861328 1546.92089844 C221.68806845 1534.1819304 203.18739771 1525.38188048 181.96484375 1527.48828125 C169.07258676 1529.85743332 155.93571811 1535.70589553 147.91796875 1546.40234375 C138.59668594 1560.75848005 138.54455241 1577.99392908 140.6875 1594.4375 C140.88375977 1595.94751587 140.88375977 1595.94751587 141.08398438 1597.48803711 C144.46448486 1622.28020325 149.39146631 1646.68442123 155.25 1671 C160.75271184 1693.91650057 165.88456738 1716.81735935 166.1875 1740.5 C166.21009888 1741.89013306 166.21009888 1741.89013306 166.2331543 1743.30834961 C166.08390634 1752.7912681 163.25218211 1761.51190773 156.59375 1768.41015625 C145.11889017 1778.40512344 130.33423595 1778.98097001 115.83300781 1778.2890625 C106.956989 1777.62954407 100.13179596 1774.01909874 94.125 1767.49609375 C83.22833295 1753.51852382 85.32963304 1732.12553097 85.41918945 1715.50292969 C85.43735406 1712.02791895 85.43969896 1708.55317818 85.43945312 1705.078125 C85.46027035 1692.10922424 85.80897937 1679.19907903 86.51370239 1666.25036621 C87.97601573 1638.32567461 83.54257282 1612.20100404 66.625 1589.125 C65.86832031 1588.08730469 65.11164063 1587.04960938 64.33203125 1585.98046875 C59.44640397 1579.3588972 54.58278367 1572.8237496 48.625 1567.125 C47.99464844 1566.49980469 47.36429688 1565.87460938 46.71484375 1565.23046875 C27.11784883 1546.57466741 2.8778483 1534.40006667 -24.39257812 1534.65429688 C-54.15924804 1535.53474589 -82.87953188 1551.34576712 -103.23046875 1572.640625 C-127.69007117 1600.97633928 -137.0943656 1640.05969337 -144.125 1676 C-144.25584991 1676.66105743 -144.38669983 1677.32211487 -144.52151489 1678.00320435 C-150.12817973 1706.66371024 -153.36456362 1735.73161565 -156.56900024 1764.73556519 C-159.59233395 1792.05875414 -162.71768954 1819.35848366 -166.6875 1846.5625 C-166.91658554 1848.15534317 -166.91658554 1848.15534317 -167.15029907 1849.78036499 C-168.76247118 1860.91201911 -170.65221998 1871.95600164 -172.92578125 1882.97265625 C-173.12585281 1883.94303329 -173.32592438 1884.91341034 -173.53205872 1885.91319275 C-177.94347832 1906.66673007 -185.27521002 1925.67879118 -197.375 1943.125 C-197.96152344 1944.06085938 -198.54804687 1944.99671875 -199.15234375 1945.9609375 C-202.89567287 1951.54510377 -202.89567287 1951.54510377 -206.328125 1952.890625 C-209.04521608 1953.2516371 -211.63152718 1953.17725663 -214.375 1953.125 C-215.99007168 1953.22129899 -217.60463808 1953.32626717 -219.21875 1953.4375 C-232.35576525 1954.16996166 -232.35576525 1954.16996166 -236.94140625 1951.796875 C-238.84431704 1949.69528443 -240.05422669 1947.63409085 -241.375 1945.125 C-242.02082031 1944.15691406 -242.66664063 1943.18882813 -243.33203125 1942.19140625 C-252.26347957 1928.65338533 -258.49887303 1913.43642273 -259.375 1897.125 C-259.43945312 1896.15433594 -259.50390625 1895.18367188 -259.5703125 1894.18359375 C-259.94703788 1883.14554013 -258.09821346 1872.50029659 -256.38372803 1861.62515259 C-254.89494259 1852.13838529 -253.54714661 1842.6309601 -252.1875 1833.125 C-252.04199707 1832.11245148 -251.89649414 1831.09990295 -251.74658203 1830.05667114 C-249.79554708 1816.4660233 -247.92758658 1802.86593321 -246.1328125 1789.25390625 C-241.10164025 1751.11671486 -235.91868339 1713.46425961 -226.375 1676.125 C-225.51360226 1672.72348502 -224.65469219 1669.32136854 -223.79882812 1665.91845703 C-223.28402916 1663.87656799 -222.76483283 1661.83578008 -222.24023438 1659.79638672 C-215.22464455 1632.2079217 -219.97170893 1604.4599766 -233.75 1579.8125 C-248.18037376 1556.39897966 -271.22557224 1533.88197936 -298.375 1526.125 C-302.08658857 1525.53939551 -302.08658857 1525.53939551 -305.375 1526.125 C-307.42417312 1527.89344808 -308.26519619 1529.36988248 -308.65579224 1532.05599976 C-308.78740053 1534.53484048 -308.81636385 1536.99811279 -308.81640625 1539.48046875 C-308.82870773 1540.40631775 -308.84100922 1541.33216675 -308.85368347 1542.28607178 C-308.8793917 1544.2676226 -308.89904052 1546.24925958 -308.91320801 1548.23092651 C-308.95378634 1553.37851171 -309.05073474 1558.52502859 -309.14453125 1563.671875 C-309.16208466 1564.67890976 -309.17963806 1565.68594452 -309.19772339 1566.72349548 C-310.27020955 1624.78040755 -310.27020955 1624.78040755 -328.2890625 1643.3515625 C-336.29738248 1650.16013417 -345.18979029 1650.91274498 -355.375 1650.125 C-365.08577687 1648.20695716 -372.95041488 1644.6943545 -379.1875 1636.875 C-394.45864299 1613.22272467 -381.7834905 1572.65644744 -377.50437927 1547.12675476 C-375.9337615 1537.68263361 -375.16215235 1528.52823714 -375.13476562 1518.93603516 C-375.12508593 1516.89313612 -375.09399372 1514.85125686 -375.0625 1512.80859375 C-374.95331137 1499.39769059 -376.967116 1487.25373399 -386.26171875 1477.0546875 C-391.83778322 1471.81822617 -397.37300128 1469.16050806 -405 1468.5 C-415.88530604 1468.91674219 -424.87564642 1476.15075853 -432.68188477 1483.05786133 C-443.73164209 1492.82932997 -453.82445701 1497.89970107 -468.71875 1497.52734375 C-477.27335422 1496.5859717 -483.01800363 1492.43401177 -488.4375 1485.921875 C-491.17062297 1481.97647975 -493.33211113 1477.79938782 -495.50292969 1473.52539062 C-498.1239369 1468.40855863 -501.02716017 1462.79891992 -506.375 1460.125 C-510.16820548 1459.41928735 -513.80629469 1459.27802458 -517.26782227 1461.14697266 C-526.37153008 1468.32687371 -534.2634577 1476.89750899 -542.36767578 1485.15869141 C-550.38415969 1493.31650048 -558.34677403 1501.08235651 -567.375 1508.125 C-568.45406302 1509.03551616 -569.52698732 1509.95342943 -570.58984375 1510.8828125 C-603.74292584 1539.70744341 -642.14680234 1561.97292541 -680.54296875 1582.953125 C-701.08843551 1594.19813127 -718.84628526 1607.56945293 -735.375 1624.125 C-736.035 1624.73859375 -736.695 1625.3521875 -737.375 1625.984375 C-750.12521249 1638.03731025 -759.73151746 1652.97455314 -768.375 1668.125 C-768.7987793 1668.85879883 -769.22255859 1669.59259766 -769.65917969 1670.34863281 C-778.92909179 1686.55850985 -785.20565016 1703.8991007 -791.28515625 1721.50390625 C-817.00537073 1795.9390591 -817.00537073 1795.9390591 -851.4375 1813.5 C-867.00502561 1821.03912516 -884.07096896 1821.23885636 -900.47558594 1815.80957031 C-913.50434977 1811.11385646 -924.95443739 1803.93171915 -931.125 1791.15234375 C-941.20021446 1766.75143372 -937.58382237 1738.24631253 -928.20751953 1714.09472656 C-924.40023745 1705.08676416 -918.00777614 1698.14732014 -911.375 1691.125 C-909.49360636 1689.08918373 -907.62187099 1687.04457051 -905.75 1685 C-905.04170044 1684.22837524 -905.04170044 1684.22837524 -904.3190918 1683.44116211 C-898.11915644 1676.68065787 -892.16250266 1669.71910443 -886.19946289 1662.75048828 C-882.44126116 1658.36079732 -878.66320692 1653.98881022 -874.875 1649.625 C-866.35805811 1639.80996044 -857.90161587 1629.94502853 -849.5168457 1620.0168457 C-845.17564863 1614.88026739 -840.80011414 1609.77352989 -836.41796875 1604.671875 C-834.37332321 1602.29116839 -832.33473474 1599.90547191 -830.30078125 1597.515625 C-824.83385155 1591.09917593 -819.29589349 1584.775475 -813.59765625 1578.5625 C-811.70078236 1576.48227275 -809.84107057 1574.37943102 -808 1572.25 C-804.35961292 1568.0575163 -800.58082931 1563.99664258 -796.79980469 1559.93139648 C-793.31917197 1556.1801826 -789.94603538 1552.35871184 -786.6796875 1548.41796875 C-785.375 1547.125 -785.375 1547.125 -783.375 1547.125 C-783.1063916 1546.53114502 -782.8377832 1545.93729004 -782.56103516 1545.32543945 C-781.36967768 1543.11512555 -780.17288102 1541.67852817 -778.3984375 1539.91796875 C-777.81457275 1539.3353125 -777.23070801 1538.75265625 -776.62915039 1538.15234375 C-775.69897095 1537.24162109 -775.69897095 1537.24162109 -774.75 1536.3125 C-774.11118896 1535.68085937 -773.47237793 1535.04921875 -772.81420898 1534.3984375 C-769.184748 1530.83129081 -765.50418955 1527.37237271 -761.6171875 1524.0859375 C-759.02957145 1521.82290047 -756.53656552 1519.47211096 -754.03686523 1517.11279297 C-747.36357836 1510.81661653 -740.56483278 1504.83137347 -733.375 1499.125 C-732.27083668 1498.21902845 -731.16804802 1497.31137977 -730.06640625 1496.40234375 C-709.98777792 1479.93081952 -688.22929675 1465.77527181 -665.37573242 1453.48828125 C-643.59233331 1441.73577209 -624.08846387 1427.25441853 -606.80859375 1409.4921875 C-604.24255435 1406.99616843 -601.55433766 1404.78596662 -598.75 1402.5625 C-587.76111321 1393.72950949 -587.76111321 1393.72950949 -582.375 1381.125 C-582.5930713 1376.6126016 -583.78045512 1373.83202634 -586.6875 1370.375 C-587.574375 1369.6325 -588.46125 1368.89 -589.375 1368.125 C-590.09945313 1367.49851562 -590.82390625 1366.87203125 -591.5703125 1366.2265625 C-595.42038411 1363.3416899 -599.60064432 1361.36017777 -603.93554688 1359.30078125 C-608.49150337 1357.00219818 -610.92342821 1354.77137047 -613.375 1350.125 C-614.37711147 1342.85969185 -611.83116967 1336.89606232 -609.375 1330.125 C-608.61887202 1327.87705194 -607.86862308 1325.62711561 -607.125 1323.375 C-606.54166667 1321.625 -605.95833333 1319.875 -605.375 1318.125 C-607.04175781 1318.19460938 -607.04175781 1318.19460938 -608.7421875 1318.265625 C-618.97188705 1318.56592323 -627.24618361 1318.15361741 -635.75 1311.8125 C-645.67293553 1301.6533041 -644.8519023 1287.77255142 -645.40405273 1274.48413086 C-645.76797799 1259.05626151 -645.76797799 1259.05626151 -652.5625 1245.625 C-655.375 1242.28558394 -655.375 1242.28558394 -655.375 1240.125 C-656.035 1239.8775 -656.695 1239.63 -657.375 1239.375 C-659.72894005 1238.39419165 -661.83286599 1237.33705257 -664.0625 1236.125 C-673.21745404 1231.57539364 -683.1015077 1231.78734063 -693.125 1231.8125 C-695.02765625 1231.78833008 -695.02765625 1231.78833008 -696.96875 1231.76367188 C-722.83210621 1231.75047629 -741.84465217 1243.17849029 -761.44287109 1258.72680664 C-780.85999432 1274.06213367 -802.37086832 1289.25112044 -827.375 1293.125 C-828.35146484 1293.28935547 -828.35146484 1293.28935547 -829.34765625 1293.45703125 C-853.15390915 1296.79435642 -878.55066786 1292.03777679 -898.375 1278.125 C-909.45592182 1269.35927735 -919.24753213 1257.58309796 -921.375 1243.125 C-922.87890949 1222.66196929 -915.60316504 1204.07487338 -902.9765625 1188.12890625 C-878.80176231 1160.21536068 -849.80716994 1149.91727818 -813.875 1146.1875 C-813.10929688 1146.10540283 -812.34359375 1146.02330566 -811.5546875 1145.9387207 C-801.39149851 1144.84936423 -791.22085874 1143.92578743 -781.03125 1143.12109375 C-779.98102661 1143.03739029 -778.93080322 1142.95368683 -777.84875488 1142.8674469 C-772.70431242 1142.45938683 -767.55944217 1142.06537608 -762.41210938 1141.69555664 C-736.67975117 1139.76403264 -702.77694489 1135.71765262 -684.375 1115.125 C-677.69023705 1106.93769859 -674.75755101 1098.30244944 -675.0859375 1087.734375 C-675.76565806 1081.59851909 -677.98651222 1076.51348778 -682.375 1072.125 C-693.69560923 1063.33346305 -706.97962843 1058.5801734 -720.4375 1054.1875 C-721.22468414 1053.92798553 -722.01186829 1053.66847107 -722.82290649 1053.40109253 C-766.87868351 1038.90372835 -812.0159146 1030.64173001 -858.4375 1030.8125 C-859.5038266 1030.81465515 -860.5701532 1030.8168103 -861.66879272 1030.81903076 C-886.37203799 1030.89871791 -910.02376411 1033.47219321 -934.33874512 1037.72119141 C-968.29767032 1043.61332842 -968.29767032 1043.61332842 -980.375 1036.125 C-986.95831861 1031.15015577 -992.84063069 1025.67095304 -996.375 1018.125 C-996.69082031 1017.45210937 -997.00664063 1016.77921875 -997.33203125 1016.0859375 C-1001.17236682 1006.44125913 -1000.36974235 995.57524869 -996.375 986.125 C-990.50170015 973.80457215 -982.996682 965.1201973 -970.25 959.6875 C-956.00593256 955.23499759 -944.62695949 958.95977818 -930.96777344 963.6237793 C-923.7596446 966.0787147 -916.66988209 968.19526378 -909.1875 969.625 C-908.41760742 969.77227539 -907.64771484 969.91955078 -906.85449219 970.07128906 C-898.65275085 971.54637025 -890.50932644 972.28389161 -882.1796875 972.36328125 C-880.89394585 972.37804001 -880.89394585 972.37804001 -879.58222961 972.39309692 C-858.49152971 972.58473449 -838.20385451 971.75403359 -817.375 968.125 C-816.65799927 968.0014917 -815.94099854 967.8779834 -815.20227051 967.75073242 C-800.17991444 965.15772794 -785.21224736 962.28511814 -770.2578125 959.328125 C-768.01743574 958.88571849 -765.77702815 958.44346965 -763.53656006 958.00152588 C-762.05780055 957.70962113 -760.57916195 957.41710322 -759.10064697 957.1239624 C-745.79211333 954.49210714 -732.43286427 952.26795606 -719.01733398 950.25366211 C-706.66247287 948.36750633 -694.0919555 946.22504392 -682.9375 940.3125 C-682.26992676 939.96630615 -681.60235352 939.6201123 -680.91455078 939.26342773 C-670.73368398 933.81695033 -663.14232905 926.30610314 -659.5 915.125 C-654.30362872 892.75259908 -662.51698573 868.95279468 -672.3125 849 C-674.51149179 844.3034778 -675.44411481 840.26693314 -674.375 835.125 C-673.13755443 832.75322933 -672.04583711 831.15253267 -670.375 829.125 C-659.83788985 815.69717822 -651.46125758 800.47220438 -650.375 783.125 C-650.32214844 782.35285156 -650.26929688 781.58070313 -650.21484375 780.78515625 C-649.35088055 755.80535073 -660.95071235 733.05238244 -671.375 711.125 C-684.99600663 682.47335188 -684.99600663 682.47335188 -689.375 667.125 C-689.71144531 666.01769531 -690.04789063 664.91039062 -690.39453125 663.76953125 C-692.11209641 657.45610681 -692.69144313 651.32562562 -692.8125 644.8125 C-692.84609619 643.70068359 -692.84609619 643.70068359 -692.88037109 642.56640625 C-692.85102806 635.67233766 -690.46866271 630.61476107 -686.0625 625.375 C-673.6500231 614.98315887 -657.41206284 613.33477014 -641.91015625 611.44921875 C-631.0337112 610.12430744 -620.42966033 608.42546399 -609.74853516 605.96142578 C-603.5412174 604.54227469 -597.36864852 603.48940591 -591.0625 602.625 C-582.95013016 601.45831852 -576.17379796 599.62389286 -570 593.9375 C-561.80627258 579.75604869 -561.02624817 563.88294683 -564.375 548.125 C-567.4901607 537.54794274 -573.33920648 527.67377573 -581.375 520.125 C-581.375 519.465 -581.375 518.805 -581.375 518.125 C-582.035 518.125 -582.695 518.125 -583.375 518.125 C-583.375 517.465 -583.375 516.805 -583.375 516.125 C-584.24656738 515.74347778 -584.24656738 515.74347778 -585.13574219 515.35424805 C-587.61679642 513.99226505 -589.23018103 512.4818556 -591.203125 510.45703125 C-591.92113281 509.72806641 -592.63914062 508.99910156 -593.37890625 508.24804688 C-594.12011719 507.48556641 -594.86132812 506.72308594 -595.625 505.9375 C-600.40396536 501.04394133 -605.21166664 496.30062801 -610.40136719 491.8425293 C-614.50972047 488.26728618 -618.42180226 484.47519708 -622.375 480.73046875 C-628.93470772 474.54230698 -635.51697164 468.57342375 -642.90625 463.38671875 C-643.3909375 462.97035156 -643.875625 462.55398438 -644.375 462.125 C-644.375 461.465 -644.375 460.805 -644.375 460.125 C-644.95677002 459.8571167 -645.53854004 459.5892334 -646.13793945 459.31323242 C-648.41350511 458.10454771 -650.19603208 456.76646034 -652.16796875 455.11328125 C-652.88146484 454.51966797 -653.59496094 453.92605469 -654.33007812 453.31445312 C-655.43512695 452.38536133 -655.43512695 452.38536133 -656.5625 451.4375 C-672.44704577 438.15042712 -689.02350612 425.62014285 -706.42773438 414.38330078 C-707.76528976 413.51898778 -709.09977202 412.64990609 -710.43164062 411.77685547 C-726.7612936 401.08234434 -743.81783568 391.56863078 -761.14404297 382.58935547 C-782.44994175 371.54515898 -802.95169519 358.53972843 -821.375 343.125 C-822.06722656 342.5784375 -822.75945312 342.031875 -823.47265625 341.46875 C-833.21358802 333.51084042 -841.44206541 321.75605774 -843.375 309.125 C-844.98189928 291.35728511 -837.88632822 275.30475826 -827.1875 261.375 C-814.57206895 246.71036188 -797.31900575 239.30491105 -778.375 237.125 C-765.46015804 236.46508961 -752.88133656 236.58683319 -740.375 240.125 C-739.27929688 240.43050781 -738.18359375 240.73601562 -737.0546875 241.05078125 C-716.67843922 247.55132449 -698.33477494 260.87559223 -680.375 272.125 C-679.40739746 272.72747559 -678.43979492 273.32995117 -677.44287109 273.95068359 C-653.0153862 289.17163773 -629.42260662 305.5986658 -607.375 324.125 C-606.86469238 324.55039062 -606.35438477 324.97578125 -605.82861328 325.4140625 C-591.47963877 337.39650468 -577.66494499 350.01712787 -565.375 364.125 C-564.93526855 364.62531738 -564.49553711 365.12563477 -564.04248047 365.64111328 C-554.78212647 376.20583622 -546.39798452 387.41476355 -538.28320312 398.87524414 C-529.42051156 411.39194116 -522.29900355 419.51214745 -506.8125 423 C-484.24712212 428.65981894 -467.44485739 440.29231443 -455.34375 460.4453125 C-452.81582356 464.99014899 -450.93561177 469.77332272 -449.01513672 474.59741211 C-441.13290068 494.65673387 -441.13290068 494.65673387 -425.25 508.5625 C-423.96988796 509.11111945 -422.67848707 509.63449863 -421.375 510.125 C-419.7971875 510.74375 -419.7971875 510.74375 -418.1875 511.375 C-407.89137382 513.40046745 -397.5662236 512.81338853 -388.4375 507.375 C-383.46284099 501.94809926 -382.92842735 496.34146146 -383.125 489.3125 C-383.14143555 488.11947266 -383.14143555 488.11947266 -383.15820312 486.90234375 C-383.25009972 482.01184672 -383.57339045 477.19086676 -384.14453125 472.33203125 C-385.26903722 461.56345717 -384.9953516 448.15094482 -378.375 439.125 C-370.63253203 429.83403843 -359.53716232 428.38947919 -348.1875 426.6875 C-339.72018504 425.39299821 -332.60145649 423.81237885 -326.75 417.125 C-322.78161327 408.31480172 -325.31921687 398.13622154 -328.56640625 389.52734375 C-332.02984394 380.88795714 -336.02241528 372.46949329 -339.99365234 364.05517578 C-341.25283017 361.38415205 -342.49824218 358.70729138 -343.73828125 356.02734375 C-348.44193625 345.9081124 -353.49428528 336.01189675 -358.75195312 326.17089844 C-360.67130362 322.56894045 -362.57843619 318.96062974 -364.484375 315.3515625 C-373.30393473 298.63148485 -373.30393473 298.63148485 -382.23828125 281.97265625 C-388.92136887 269.62985661 -395.43878044 257.21775879 -401.74658203 244.67938232 C-402.52544807 243.13142997 -403.30613619 241.58439272 -404.08886719 240.03839111 C-416.9618699 214.57457781 -416.9618699 214.57457781 -419.75 201.0625 C-419.90863525 200.31210449 -420.06727051 199.56170898 -420.23071289 198.78857422 C-423.62057068 181.57065504 -420.43123076 167.14268701 -410.72265625 152.66015625 C-407.88472015 148.71202509 -407.88472015 148.71202509 -406.375 147.125 C-405.715 147.125 -405.055 147.125 -404.375 147.125 C-404.375 146.465 -404.375 145.805 -404.375 145.125 C-398.3080493 140.67590282 -393.75235643 139.34491699 -386.375 140.125 C-362.87876762 145.87776486 -346.05982335 167.18141446 -333.9987793 186.85327148 C-319.10113043 211.93830487 -311.35566551 240.4642697 -302.875 268.1875 C-299.02294721 280.77938579 -295.09116598 293.33086473 -290.7565918 305.7663269 C-290.26321421 307.18216057 -289.77329882 308.59920688 -289.28735352 310.01760864 C-283.89374201 327.3841113 -283.89374201 327.3841113 -272.25 340.390625 C-266.06128948 342.81453662 -260.60040337 342.52282278 -254.44921875 340.12890625 C-249.86184715 337.90865295 -246.60596512 335.26767104 -244.5 330.5 C-239.45908771 314.26041431 -248.35790706 295.620889 -254 280.5 C-254.67153786 278.68524717 -255.34300391 276.87046776 -256.0144043 275.05566406 C-269.22305365 239.47787455 -283.47375776 204.29785703 -297.5625 169.0625 C-297.92414371 168.15799606 -298.28578743 167.25349213 -298.65839005 166.32157898 C-303.54441478 154.10261453 -308.44066469 141.8877909 -313.34906006 129.67779541 C-314.38171421 127.10829336 -315.41344063 124.53842016 -316.44506836 121.96850586 C-318.12477823 117.7855141 -319.80867033 113.60422686 -321.49550819 109.42410469 C-322.11559119 107.88609811 -322.73453897 106.34763318 -323.35216331 104.80863762 C-328.15792585 92.83858368 -333.34260173 81.07010199 -338.80360413 69.38493347 C-352.4262081 40.21504779 -352.4262081 40.21504779 -348.1875 26.1875 C-344.91129079 18.15123796 -340.31721736 13.38122966 -332.5 9.8125 C-327.22377556 8.65173062 -322.50677322 8.47241636 -317.3125 10.0625 C-306.91780958 17.36089966 -302.84505368 27.70047587 -298.375 39.125 C-297.93720215 40.24261719 -297.4994043 41.36023438 -297.04833984 42.51171875 C-290.00499307 60.69627091 -284.33280507 78.89319466 -280.0703125 97.94140625 C-274.20136817 123.8655646 -265.81341148 149.11230691 -254.375 173.125 C-253.86098633 174.21055176 -253.34697266 175.29610352 -252.81738281 176.41455078 C-237.27015151 208.99210722 -217.85010297 239.15842395 -196.375 268.125 C-195.85953613 268.82061035 -195.34407227 269.5162207 -194.81298828 270.23291016 C-191.35918283 274.88305411 -187.87549176 279.50992994 -184.375 284.125 C-183.73981445 284.96490479 -183.73981445 284.96490479 -183.09179688 285.82177734 C-177.62452141 293.04144023 -171.98969298 300.10398853 -166.25976562 307.11547852 C-162.7679032 311.3928053 -159.33164858 315.70737643 -155.9375 320.0625 C-151.71565693 325.45642609 -147.44518774 330.8094777 -143.125 336.125 C-142.5585376 336.83132568 -141.9920752 337.53765137 -141.40844727 338.26538086 C-136.25590473 344.56610555 -130.7523566 351.0996211 -122.3828125 352.4453125 C-116.82735673 352.8874422 -113.18756527 351.57858451 -108.71484375 348.31640625 C-104.77203722 344.62372768 -101.68164622 340.328396 -98.5390625 335.953125 C-96.35050829 333.09299279 -94.84877417 331.36081713 -91.20532227 330.77783203 C-90.37572998 330.72997559 -89.5461377 330.68211914 -88.69140625 330.6328125 C-87.76932373 330.5699707 -86.84724121 330.50712891 -85.8972168 330.44238281 C-84.92051025 330.37889648 -83.94380371 330.31541016 -82.9375 330.25 C-69.07770978 329.15063987 -56.93611756 326.33955726 -47.0625 315.875 C-35.43226051 301.15195443 -37.83571161 279.99047593 -39.27586365 262.46166992 C-40.67894974 245.19844515 -41.72940593 227.9378346 -42.5445919 210.63716698 C-43.59156322 188.60754152 -44.87170597 166.60630915 -46.41796875 144.60546875 C-46.50542673 143.35580196 -46.59288471 142.10613518 -46.68299294 140.8185997 C-47.48336881 129.39891628 -48.29734968 117.98022353 -49.12182617 106.56225586 C-52.70652664 56.79714629 -52.70652664 56.79714629 -52.80078125 39.36328125 C-52.81151169 38.26001999 -52.82224213 37.15675873 -52.83329773 36.02006531 C-52.70594948 23.51330026 -50.46369351 10.81688291 -41.3125 1.8125 C-29.75636111 -7.79873317 -12.67560367 -7.04200204 0 0 Z M5.875 349.71484375 C1.65469402 354.19891886 -0.47942683 359.32162982 -2.375 365.125 C-2.56964844 365.72054688 -2.76429688 366.31609375 -2.96484375 366.9296875 C-3.59337448 370.29382338 -3.60013049 373.65226822 -3.625 377.0625 C-3.6559375 378.11727539 -3.6559375 378.11727539 -3.6875 379.19335938 C-3.72098711 383.6597027 -3.41936478 386.75445327 -0.375 390.125 C3.33032661 391.45431209 5.19009026 391.27237463 8.921875 390.0078125 C20.63232812 384.04660899 29.76051314 377.25465296 35.625 365.125 C36.06070312 364.22523438 36.49640625 363.32546875 36.9453125 362.3984375 C39.73826119 355.83223362 40.19362105 350.84945605 37.625 344.125 C35.71613287 340.78448251 34.59473049 339.52708337 31.0625 338.0625 C21.6022708 338.23450417 12.7367122 343.48110075 5.875 349.71484375 Z M207.625 398.125 C201.6857646 405.56905515 202.41183605 413.83174942 202.375 422.875 C202.354375 424.12539063 202.33375 425.37578125 202.3125 426.6640625 C202.27709179 435.03810503 202.4763981 441.51562709 208.1875 448.0625 C212.14245997 451.40900459 214.44850422 451.45896747 219.625 451.125 C226.1622098 449.75205998 230.00173543 446.66712742 233.625 441.125 C238.69370548 432.00133014 237.60445141 419.54396435 235.5625 409.5625 C233.61314837 402.95283796 230.24130444 398.17812768 224.203125 394.75 C216.57985281 391.25397708 214.1993465 392.86322006 207.625 398.125 Z M-90.375 415.125 C-91.31472656 415.57488281 -92.25445313 416.02476562 -93.22265625 416.48828125 C-107.58041737 423.82957992 -120.27624349 434.40551091 -132.61474609 444.66894531 C-135.07449478 446.70361121 -137.57194797 448.69073325 -140.0625 450.6875 C-145.83873897 455.41900816 -151.27593037 460.48729299 -156.72216797 465.58984375 C-158.33348223 467.08643815 -159.96152475 468.56186752 -161.59765625 470.03125 C-170.02063748 477.62192083 -177.78415426 485.70610131 -185.375 494.125 C-185.91624512 494.72151367 -186.45749023 495.31802734 -187.01513672 495.93261719 C-203.93495572 514.66839731 -218.55481557 535.35072627 -231.23193359 557.16064453 C-231.99798732 558.47710507 -232.76921085 559.79057001 -233.54541016 561.10107422 C-260.57173873 606.86772232 -279.47343242 660.13334438 -266.60571289 713.15478516 C-256.84080731 750.73226507 -232.19407326 784.86785812 -198.6640625 804.7109375 C-184.87195372 812.59668867 -170.76583843 818.21435849 -155.375 822.125 C-153.84939453 822.52525391 -153.84939453 822.52525391 -152.29296875 822.93359375 C-124.04027301 828.93160383 -95.20438358 821.5034096 -71.375 806.125 C-41.74844961 786.05779591 -20.83939272 755.80807288 -3.375 725.125 C-2.88918457 724.27228516 -2.40336914 723.41957031 -1.90283203 722.54101562 C38.53027178 651.00839615 61.56698559 559.54880282 39.65991211 478.31298828 C35.06798916 462.41894475 28.29330638 447.83313552 17.625 435.125 C17.12613281 434.47660156 16.62726563 433.82820313 16.11328125 433.16015625 C6.77586453 421.36130016 -7.46659646 412.48798611 -21.375 407.125 C-22.20515625 406.80402344 -23.0353125 406.48304688 -23.890625 406.15234375 C-46.24540948 399.12562056 -70.08779563 405.18318984 -90.375 415.125 Z M151.625 498.125 C151.08810547 498.55796387 150.55121094 498.99092773 149.99804688 499.43701172 C136.3699031 510.47242803 125.12863777 523.13198206 114.625 537.125 C113.86533936 538.13191895 113.86533936 538.13191895 113.09033203 539.15917969 C57.05055667 613.84438354 36.42738789 704.97290832 49.375 796.9375 C54.85644311 833.05481167 68.93062225 868.90320739 99.22998047 891.31201172 C127.05016447 911.00951426 161.90365545 918.5221144 195.58740234 913.30053711 C231.91713868 906.40465787 266.64535837 882.54013378 288.625 853.125 C289.42164063 852.09375 290.21828125 851.0625 291.0390625 850 C312.21885802 822.00741144 321.13405858 788.42456508 325.625 754.125 C325.80289063 752.81450684 325.80289063 752.81450684 325.984375 751.47753906 C334.54833742 685.38719816 323.9257469 611.89458903 294.625 552.125 C294.23199707 551.31981934 293.83899414 550.51463867 293.43408203 549.68505859 C284.28290641 531.14295465 273.3098574 515.69459164 258.625 501.125 C257.54412109 500.04798828 257.54412109 500.04798828 256.44140625 498.94921875 C240.51194814 483.84798203 221.59414554 477.38171996 199.9140625 477.8203125 C182.33304962 478.57925027 165.06602013 487.08416203 151.625 498.125 Z M-379.1640625 620.09375 C-384.84737377 627.82081359 -387.32663499 637.60865013 -386.375 647.125 C-384.9951217 653.2769574 -382.70777173 656.74074102 -377.375 660.125 C-370.64327564 662.1962998 -364.50623923 660.20688434 -358.390625 657.125 C-350.02279476 651.79328515 -345.91174328 642.38280538 -343.375 633.125 C-341.94453108 626.50173295 -341.96038899 621.10389088 -345.375 615.125 C-348.1002235 611.46541416 -349.64311705 610.32347673 -354.0625 609.125 C-363.52185854 608.53823528 -372.89125618 613.19092383 -379.1640625 620.09375 Z M-478.375 772.125 C-478.9328418 772.65706055 -479.49068359 773.18912109 -480.06542969 773.73730469 C-488.6646755 781.95710226 -496.32934127 790.54039209 -503.375 800.125 C-504.34179688 801.43404297 -504.34179688 801.43404297 -505.328125 802.76953125 C-528.70083169 835.35445341 -540.72455817 871.22894515 -534.29443359 911.62255859 C-528.9266165 940.19109274 -515.70898557 973.07084011 -491.6875 990.875 C-473.51788728 1002.62506501 -454.64975299 1007.511454 -433.375 1010.125 C-432.37082031 1010.25777344 -431.36664062 1010.39054687 -430.33203125 1010.52734375 C-392.66660694 1014.79025224 -349.65159531 1007.48310922 -319.34375 983.65234375 C-291.68017114 960.10190227 -279.84802569 928.51633154 -276.90625 892.80859375 C-273.27164235 839.51662739 -288.01824285 774.7455763 -323.35913086 733.25048828 C-333.16165268 722.23491084 -345.03038817 715.82199738 -359.75 714.25 C-402.52439149 712.3858628 -448.80046603 743.46337769 -478.375 772.125 Z M387.625 833.125 C380.96170319 840.21136328 380.22058727 848.12126318 380.37109375 857.54296875 C380.88294667 864.76403229 382.15669557 871.98810796 387.625 877.125 C392.2494773 879.97083219 396.49432251 879.32663787 401.625 878.125 C406.74837809 875.87807426 409.65651856 872.40629818 411.84765625 867.328125 C414.28158237 860.42996253 414.82777277 853.70379361 414.9375 846.4375 C414.96408691 845.36834351 414.96408691 845.36834351 414.99121094 844.27758789 C414.98316477 838.50513507 413.67461642 834.05302346 410.3125 829.25 C403.39917204 824.64111469 393.61574459 828.42007376 387.625 833.125 Z M-222.375 973.125 C-224.60215064 975.79674974 -226.78826384 978.49949321 -228.9765625 981.203125 C-251.43784941 1008.56638658 -280.18493919 1022.29750765 -314.19702148 1030.54910278 C-326.91958992 1033.63669322 -339.32282157 1036.92273741 -351.375 1042.125 C-352.15584961 1042.46112305 -352.93669922 1042.79724609 -353.74121094 1043.14355469 C-374.56209057 1052.25737985 -392.87218842 1064.49345487 -409.375 1080.125 C-410.77492188 1081.42824219 -410.77492188 1081.42824219 -412.203125 1082.7578125 C-426.03086372 1095.89827424 -436.47559259 1111.32848318 -445.375 1128.125 C-445.74995605 1128.83092285 -446.12491211 1129.5368457 -446.51123047 1130.26416016 C-456.45606907 1149.32997793 -461.68428756 1170.04447406 -465.375 1191.125 C-465.50777344 1191.86508301 -465.64054688 1192.60516602 -465.77734375 1193.36767578 C-472.39752552 1232.26124365 -468.92699743 1282.33402882 -446.22265625 1315.640625 C-442.76998452 1320.28311806 -439.17571445 1324.76273855 -435.375 1329.125 C-434.56482422 1330.06279297 -434.56482422 1330.06279297 -433.73828125 1331.01953125 C-409.28612092 1357.31946188 -370.41548161 1364.20889941 -336.26216125 1365.56393433 C-319.46443223 1366.13583382 -302.68045684 1366.17724339 -285.87374282 1366.12358236 C-283.85918698 1366.11717448 -281.84463018 1366.1112953 -279.8300724 1366.1055336 C-267.27996131 1366.06900888 -254.72990276 1366.02370573 -242.17993164 1365.95361328 C-235.92312957 1365.91876268 -229.66638313 1365.89517977 -223.4094941 1365.88340485 C-220.13338368 1365.87675035 -216.85756854 1365.86292878 -213.58153725 1365.83837509 C-194.47388979 1365.6973808 -175.72573117 1366.49008899 -157.25 1371.8125 C-156.34950928 1372.06596191 -155.44901855 1372.31942383 -154.52124023 1372.58056641 C-124.03068189 1381.49849969 -98.39865189 1398.45543392 -76.39453125 1421.09082031 C-38.41803354 1460.04398633 16.19695881 1482.47012167 70.38012695 1483.47851562 C94.82366923 1483.62112861 117.69881976 1478.65434005 135.73046875 1461.0859375 C176.20833425 1420.30132046 209.49625963 1359.02275205 209.6640625 1300.78466797 C208.96666007 1253.30028019 184.95967787 1210.67196077 154.65942383 1175.50390625 C123.314475 1139.05127045 103.71644893 1098.04284796 92.1875 1051.625 C88.64065571 1037.36617397 84.37775841 1023.67512442 78.625 1010.125 C78.13265869 1008.95614258 78.13265869 1008.95614258 77.63037109 1007.76367188 C68.850342 987.2546643 56.4667267 968.73694636 41.06201172 952.62939453 C40.1051453 951.62765976 39.15360794 950.62080698 38.20751953 949.60888672 C13.10957467 922.80500534 -22.70597649 906.26866167 -59.45703125 904.90625 C-118.19960464 903.51524098 -182.72392202 929.18958944 -222.375 973.125 Z M225.875 979.1875 C224.78956665 980.49826382 223.70643975 981.81093934 222.625 983.125 C221.45517578 984.44564453 221.45517578 984.44564453 220.26171875 985.79296875 C193.2152506 1016.46798787 168.94751796 1057.54087192 170.33984375 1099.85546875 C173.35848032 1134.46641137 186.42709293 1161.36680233 212.62890625 1184.625 C238.16525394 1205.93303458 270.56612634 1221.64505918 303.625 1226.125 C304.5634375 1226.25390625 305.501875 1226.3828125 306.46875 1226.515625 C332.48491459 1229.56690356 356.40058432 1220.48995655 376.7265625 1204.5234375 C404.86661073 1181.23773721 421.04515203 1149.71450674 425.12109375 1113.421875 C427.02285339 1092.6937012 426.20928654 1071.61273915 422.625 1051.125 C422.46402832 1050.19494141 422.30305664 1049.26488281 422.13720703 1048.30664062 C416.76571291 1018.48220643 405.21001244 990.64665579 391.4375 963.8125 C390.86749268 962.69746094 390.29748535 961.58242187 389.71020508 960.43359375 C383.97798083 949.46745557 377.22340699 940.02352591 368.625 931.125 C367.99980469 930.47402344 367.37460938 929.82304688 366.73046875 929.15234375 C357.61510764 920.42078732 345.37501491 916.32391097 332.9375 915.8125 C293.16309542 916.92940996 250.87019069 950.82757211 225.875 979.1875 Z " fill="#9CA3AF" transform="translate(1156.375,101.875)"/>
<path d="M0 0 C4.93319561 4.10562249 7.42995383 8.65970208 8.03125 15.0078125 C8.23759219 22.60989304 7.20473969 27.6559105 2.09765625 33.3984375 C-6.84769404 41.94541186 -18.33800695 43.56260998 -30.14453125 45.4296875 C-31.28565369 45.61520676 -31.28565369 45.61520676 -32.4498291 45.80447388 C-46.07555678 48.01391345 -59.75169344 49.79477306 -73.45703125 51.4296875 C-74.3884494 51.54327606 -75.31986755 51.65686462 -76.2795105 51.77389526 C-78.94690102 52.09607552 -81.61552463 52.40404566 -84.28515625 52.70703125 C-85.07022049 52.80250244 -85.85528473 52.89797363 -86.66413879 52.99633789 C-90.96399774 53.46389131 -94.74291002 53.39062846 -99.05078125 52.74238586 C-103.46622015 52.23004472 -107.91797831 52.43528017 -112.35546875 52.5 C-114.51692239 52.5175163 -116.67838102 52.53442458 -118.83984375 52.55078125 C-122.212383 52.58169047 -125.58466693 52.61722373 -128.95703125 52.66357422 C-132.23570834 52.70618553 -135.51408889 52.72942617 -138.79296875 52.75 C-139.78807465 52.76862091 -140.78318054 52.78724182 -141.80844116 52.806427 C-149.53873718 52.83440429 -157.03210773 52.12669851 -163.14453125 47.0546875 C-163.82515625 46.2090625 -164.50578125 45.3634375 -165.20703125 44.4921875 C-166.07328125 43.4403125 -166.07328125 43.4403125 -166.95703125 42.3671875 C-169.9515448 37.87541718 -169.9140264 32.69068123 -169.20703125 27.4921875 C-165.79402547 22.31763035 -160.95693552 20.98653469 -155.20703125 19.4921875 C-151.71697339 18.94529114 -148.23012593 18.67012859 -144.70703125 18.4296875 C-140.87137111 18.14144221 -137.03898841 17.82613776 -133.20703125 17.4921875 C-131.90435303 17.38624268 -130.6016748 17.28029785 -129.25952148 17.17114258 C-119.75500335 16.29894887 -111.30639615 14.24894349 -102.33700562 11.03930664 C-24.58636373 -16.58720747 -24.58636373 -16.58720747 0 0 Z " fill="#9CA3AF" transform="translate(1997.20703125,915.5078125)"/>
<path d="M0 0 C19.36940718 11.99784802 37.67441587 30.89524502 43.3125 53.6875 C43.52359492 55.03545552 43.69257905 56.39089585 43.8125 57.75 C43.88082031 58.44867187 43.94914062 59.14734375 44.01953125 59.8671875 C44.62876385 72.54825118 39.37544522 85.61727784 31.3125 95.25 C26.43543984 100.41646812 20.94239886 104.50177909 13.6328125 104.85546875 C3.8995294 104.43566261 -5.26009216 99.54772364 -12.2578125 92.8984375 C-27.05492758 76.42391666 -32.00206255 56.21674156 -37.28271484 35.30126953 C-38.08558313 32.15002233 -38.91632852 29.00901429 -39.76953125 25.87109375 C-40.0020459 25.01298096 -40.23456055 24.15486816 -40.47412109 23.27075195 C-40.88967169 21.74119531 -41.30771373 20.21231191 -41.72900391 18.68432617 C-43.57029103 11.7954857 -45.31763386 5.24608772 -42.296875 -1.484375 C-33.90042183 -14.84774413 -10.52492627 -5.86657242 0 0 Z " fill="#9CA3AF" transform="translate(1718.1875,1786.25)"/>
<path d="M0 0 C2.49145387 1.677377 4.81898812 3.44187345 7.1328125 5.35546875 C7.75542969 5.85433594 8.37804687 6.35320313 9.01953125 6.8671875 C21.96736935 18.41840486 26.85762201 37.21651459 28.35546875 53.82421875 C28.6143395 60.39728471 26.8868626 65.45453974 23.5078125 71.04296875 C14.00567672 80.29504832 1.94185571 80.76809355 -10.61401367 80.71899414 C-22.10785106 80.5019837 -31.69080169 77.82386834 -39.8671875 69.35546875 C-51.18492512 54.81118313 -51.08287815 35.04283415 -49.1171875 17.54296875 C-47.84511755 9.01571362 -45.76627279 3.00640145 -38.83984375 -2.390625 C-26.42024443 -10.28506338 -12.09264293 -6.93597094 0 0 Z " fill="#9CA3AF" transform="translate(320.8671875,706.64453125)"/>
<path d="M0 0 C5.03956973 3.17306242 7.26885502 6.32569145 9 12 C9.3389989 17.72134981 8.67813343 22.20438424 6.5625 27.5625 C6.161521 28.59177612 6.161521 28.59177612 5.75244141 29.6418457 C0.2669247 43.14834496 -7.69323953 53.80356742 -18 64 C-18.7425 64.76441406 -19.485 65.52882813 -20.25 66.31640625 C-25.84095808 71.73763882 -32.18945623 76.17597742 -38.5625 80.625 C-39.44929443 81.26622803 -40.33608887 81.90745605 -41.24975586 82.56811523 C-45.4813274 85.43854239 -48.62758261 87.50579713 -53.85546875 87.0625 C-61.26494066 85.53752634 -66.81039346 81.07297301 -71.02734375 74.90625 C-75.41804664 66.30117766 -75.16452193 56.8391923 -72.375 47.75 C-64.55889363 26.97992713 -46.13022374 18.3995273 -27.5625 8.89453125 C-24.30191103 7.2187682 -21.08971451 5.50834612 -17.9375 3.63671875 C-11.82751685 0.04133952 -6.98927918 -2.79571167 0 0 Z " fill="#9CA3AF" transform="translate(469,1437)"/>
<path d="M0 0 C7.3543232 6.01717353 11.01239127 12.29694353 12.6875 21.625 C13.20622184 28.34532967 10.70960417 33.61414028 6.7578125 38.9296875 C-4.53172134 52.09429962 -18.60063369 56.17754979 -35.53125 57.5078125 C-40.25807507 57.68331343 -43.46687342 57.60721563 -47.8125 55.625 C-52.15863209 51.3903072 -53.42485375 47.59598247 -53.6484375 41.6171875 C-53.65637416 39.45312545 -53.64807533 37.28895357 -53.625 35.125 C-53.63660156 34.06023437 -53.64820313 32.99546875 -53.66015625 31.8984375 C-53.61812542 20.35397029 -51.95916913 10.09841716 -43.6875 1.625 C-31.37424475 -7.81618083 -13.18845761 -7.10147717 0 0 Z " fill="#9CA3AF" transform="translate(1323.25,217.75)"/>
<path d="M0 0 C9.80615041 -0.77772917 22.49026314 3.58563693 30.453125 9.2578125 C31.58939089 10.26436767 32.69486811 11.30683241 33.765625 12.3828125 C34.39726563 12.95515625 35.02890625 13.5275 35.6796875 14.1171875 C41.62083985 20.03389066 43.50941215 26.8261964 43.890625 35.09375 C43.59286256 41.14204961 41.86176097 45.88188192 37.765625 50.3828125 C29.1382338 57.44158712 21.782502 58.21493832 10.765625 57.3828125 C0.93057062 55.17622979 -8.18922949 50.03810763 -13.953125 41.6484375 C-18.99426722 32.7342226 -21.76945757 22.5997552 -19.07421875 12.5234375 C-17.22003242 7.79741838 -14.57368333 4.51616705 -9.96875 2.28515625 C-6.68189082 1.17403247 -3.4116246 0.58450911 0 0 Z " fill="#9CA3AF" transform="translate(1871.234375,1456.6171875)"/>
<path d="M0 0 C0.804375 0.70125 1.60875 1.4025 2.4375 2.125 C3.035625 2.640625 3.63375 3.15625 4.25 3.6875 C8.17831835 8.44283274 6.94633533 16.40947762 6.4375 22.125 C3.50728547 33.59939148 -3.11960226 41.16559591 -12.9375 47.4375 C-28.15484898 56.21336446 -28.15484898 56.21336446 -37.296875 54.8046875 C-41.57142769 53.52232169 -44.34630165 51.11041112 -46.69775391 47.27172852 C-50.09078451 38.8485444 -48.77803433 24.06375407 -45.9375 15.625 C-42.43143944 8.10157839 -37.90320184 3.56490667 -30.328125 0.12890625 C-21.47184055 -3.08587497 -8.43257978 -5.41350801 0 0 Z " fill="#9CA3AF" transform="translate(1762.5625,401.875)"/>
<path d="M0 0 C3.34625024 2.52676039 4.67977847 4.03933542 6 8 C6.73742618 22.79997186 6.26811294 37.93271334 -3.59765625 49.9453125 C-8.80749831 54.84724427 -15.96132496 58.07777947 -23.125 58.5 C-28.66121664 57.78564947 -33.0767221 56.04736035 -36.9375 51.9375 C-39.92961864 46.48128366 -39.44101847 41.00795504 -38.15234375 35.140625 C-37.76437128 33.83857088 -37.35885361 32.541638 -36.9375 31.25 C-36.71416992 30.55970703 -36.49083984 29.86941406 -36.26074219 29.15820312 C-32.4154811 17.84738071 -26.59385404 7.95153699 -16 1.84765625 C-10.96048535 -0.35713141 -5.41250728 -1.01368263 0 0 Z " fill="#9CA3AF" transform="translate(1122,1775)"/>
<path d="M0 0 C6.64290377 5.23051068 10.55989343 12.10973363 12.0546875 20.453125 C12.36854509 25.77824212 10.78789583 30.10368536 7.671875 34.31640625 C2.56726861 39.22551708 -2.57146183 41.89112363 -9.640625 42.69140625 C-19.18017195 41.72128283 -24.91027102 36.37772164 -31.53125 29.97265625 C-34.17698369 27.26698724 -34.17698369 27.26698724 -37.16796875 25.61328125 C-40.15413004 22.43812241 -39.84434662 20.09308947 -39.76757812 15.85546875 C-39.72568359 14.93507813 -39.68378906 14.0146875 -39.640625 13.06640625 C-39.61806641 12.13054687 -39.59550781 11.1946875 -39.57226562 10.23046875 C-39.51343095 7.92414951 -39.43129646 5.62109787 -39.328125 3.31640625 C-38.43516724 3.02092896 -38.43516724 3.02092896 -37.52416992 2.71948242 C-32.62047876 1.0967062 -32.62047876 1.0967062 -27.75390625 -0.6328125 C-19.09518615 -3.65776278 -8.14589225 -4.99545102 0 0 Z " fill="#9CA3AF" transform="translate(186.328125,1649.68359375)"/>
<path d="M0 0 C4.68484806 4.02830166 7.7631925 8.4564898 9.64453125 14.4140625 C9.54847436 19.88930523 8.04425994 23.16440164 4.64453125 27.4140625 C-2.52881575 34.19966102 -11.27216092 35.82073509 -20.828125 35.69140625 C-26.38730116 35.08135755 -30.6102824 32.55971513 -34.29296875 28.4140625 C-38.15647321 22.79441965 -38.06493621 16.66377256 -36.96484375 10.07421875 C-35.25944688 3.67898047 -31.81917003 0.02929662 -26.35546875 -3.5859375 C-18.17161071 -7.59763262 -7.22765808 -5.20391382 0 0 Z " fill="#9CA3AF" transform="translate(1803.35546875,675.5859375)"/>
<path d="M0 0 C3.40362307 2.37462075 4.43916353 3.9096959 5.6875 7.875 C6.32914705 15.57476462 2.79613379 22.57965052 -1.3125 28.875 C-5.39655633 33.41842294 -9.4515232 36.9499312 -15.3125 38.875 C-20.49560009 38.875 -23.16667375 36.72056037 -26.89453125 33.4453125 C-29.55046107 30.50403485 -29.65040082 27.15523071 -29.59375 23.32421875 C-28.7142611 15.66533627 -26.12998291 8.04609592 -20.3125 2.875 C-13.59356706 -1.21814306 -7.59927667 -2.58088642 0 0 Z " fill="#9CA3AF" transform="translate(411.3125,665.125)"/>
<path d="M0 0 C2.58048655 4.32855809 3.55432503 7.78730063 2.6328125 12.81640625 C1.02600353 18.36088904 -1.14812471 24.23660432 -6.0625 27.625 C-11.07706633 29.9233429 -16.6408847 29.84108337 -22 29 C-26.1103998 27.25789696 -28.16475652 24.13899612 -29.875 20.125 C-31.75687837 14.14331517 -31.54911053 8.65600438 -29.17578125 2.86328125 C-26.41176403 -1.5169055 -21.81689473 -3.47007237 -17 -4.875 C-10.27410546 -5.15524561 -5.25422206 -4.64326601 0 0 Z " fill="#9CA3AF" transform="translate(1873,684)"/>
</svg>
